<mxfile host="65bd71144e" scale="1" border="10">
    <diagram id="-rriOPSDnHkLpZKLwRpb" name="Page-1">
        <mxGraphModel dx="2683" dy="1498" grid="1" gridSize="10" guides="1" tooltips="1" connect="1" arrows="1" fold="1" page="1" pageScale="1" pageWidth="850" pageHeight="1100" background="#FFFFFF" math="0" shadow="0">
            <root>
                <mxCell id="0"/>
                <mxCell id="1" parent="0"/>
                <mxCell id="408" style="edgeStyle=none;html=1;exitX=0.5;exitY=0;exitDx=0;exitDy=0;endArrow=none;endFill=0;" parent="1" source="384" edge="1">
                    <mxGeometry relative="1" as="geometry">
                        <mxPoint x="-2339.35" y="-1060" as="targetPoint"/>
                    </mxGeometry>
                </mxCell>
                <mxCell id="384" value="INTERAZIONE" style="rounded=0;whiteSpace=wrap;html=1;" parent="1" vertex="1">
                    <mxGeometry x="-2399.19" y="-1039.96" width="120" height="40" as="geometry"/>
                </mxCell>
                <mxCell id="385" style="edgeStyle=elbowEdgeStyle;html=1;exitX=0.5;exitY=1;exitDx=0;exitDy=0;endArrow=none;endFill=0;elbow=vertical;rounded=0;jumpStyle=arc;" parent="1" target="389" edge="1">
                    <mxGeometry relative="1" as="geometry">
                        <mxPoint x="-2339.8" y="-999.96" as="sourcePoint"/>
                        <mxPoint x="-2399.19" y="-920.57" as="targetPoint"/>
                    </mxGeometry>
                </mxCell>
                <mxCell id="386" style="edgeStyle=elbowEdgeStyle;elbow=vertical;html=1;exitX=0.5;exitY=1;exitDx=0;exitDy=0;endArrow=none;endFill=0;rounded=0;jumpStyle=arc;" parent="1" edge="1">
                    <mxGeometry relative="1" as="geometry">
                        <mxPoint x="-2339.8" y="-999.96" as="sourcePoint"/>
                        <mxPoint x="-2279.19" y="-919.5700000000002" as="targetPoint"/>
                    </mxGeometry>
                </mxCell>
                <mxCell id="387" value="" style="shape=singleArrow;whiteSpace=wrap;html=1;arrowWidth=0.4;arrowSize=0.4;rotation=-90;fillColor=#000000;" parent="1" vertex="1">
                    <mxGeometry x="-2359.49" y="-994.0400000000001" width="38.76" height="29.17" as="geometry"/>
                </mxCell>
                <mxCell id="388" value="(e)" style="text;html=1;align=center;verticalAlign=middle;resizable=0;points=[];autosize=1;strokeColor=none;fillColor=none;" parent="1" vertex="1">
                    <mxGeometry x="-2341.7999999999997" y="-986.9600000000002" width="40" height="30" as="geometry"/>
                </mxCell>
                <mxCell id="389" value="COMMENTO" style="rounded=0;whiteSpace=wrap;html=1;" parent="1" vertex="1">
                    <mxGeometry x="-2439.35" y="-919.57" width="82" height="40" as="geometry"/>
                </mxCell>
                <mxCell id="390" value="REAZIONE" style="rounded=0;whiteSpace=wrap;html=1;" parent="1" vertex="1">
                    <mxGeometry x="-2319.2000000000003" y="-919.57" width="80" height="40" as="geometry"/>
                </mxCell>
                <mxCell id="391" value="codice" style="edgeStyle=none;jumpStyle=arc;html=1;startArrow=none;startFill=0;endArrow=oval;endFill=1;" parent="1" source="392" edge="1">
                    <mxGeometry x="1" y="30" relative="1" as="geometry">
                        <mxPoint x="-2339.19" y="-699.74" as="targetPoint"/>
                        <mxPoint x="-2299.19" y="-739.74" as="sourcePoint"/>
                        <mxPoint as="offset"/>
                    </mxGeometry>
                </mxCell>
                <mxCell id="392" value="EMOJI" style="whiteSpace=wrap;html=1;rounded=0;" parent="1" vertex="1">
                    <mxGeometry x="-2379.19" y="-759.74" width="80" height="40" as="geometry"/>
                </mxCell>
                <mxCell id="394" style="edgeStyle=none;html=1;endArrow=none;endFill=0;" parent="1" target="384" edge="1">
                    <mxGeometry relative="1" as="geometry">
                        <mxPoint x="-2259.35" y="-1020" as="sourcePoint"/>
                    </mxGeometry>
                </mxCell>
                <mxCell id="395" value="" style="endArrow=oval;html=1;fillStyle=auto;strokeWidth=1;startSize=6;endSize=6;fillColor=#000000;startArrow=none;startFill=0;endFill=0;" parent="1" source="389" edge="1">
                    <mxGeometry width="50" height="50" relative="1" as="geometry">
                        <mxPoint x="-2039.47" y="-740.4199999999998" as="sourcePoint"/>
                        <mxPoint x="-2359.35" y="-940" as="targetPoint"/>
                    </mxGeometry>
                </mxCell>
                <mxCell id="396" value="timestamp" style="edgeLabel;html=1;align=center;verticalAlign=middle;resizable=0;points=[];" parent="395" connectable="0" vertex="1">
                    <mxGeometry x="0.4791" y="1" relative="1" as="geometry">
                        <mxPoint x="43" y="-5" as="offset"/>
                    </mxGeometry>
                </mxCell>
                <mxCell id="397" value="(0, N)" style="edgeStyle=none;jumpStyle=arc;html=1;startArrow=none;startFill=0;endArrow=none;endFill=0;" parent="1" source="400" target="392" edge="1">
                    <mxGeometry x="-0.7492" y="20" relative="1" as="geometry">
                        <mxPoint as="offset"/>
                        <mxPoint x="-2361.7999999999997" y="-499.63" as="targetPoint"/>
                        <Array as="points">
                            <mxPoint x="-2399.35" y="-740"/>
                        </Array>
                    </mxGeometry>
                </mxCell>
                <mxCell id="398" style="edgeStyle=none;html=1;exitX=0.5;exitY=0;exitDx=0;exitDy=0;endArrow=none;endFill=0;" parent="1" source="400" target="389" edge="1">
                    <mxGeometry relative="1" as="geometry"/>
                </mxCell>
                <mxCell id="399" value="(0, N)" style="edgeLabel;html=1;align=center;verticalAlign=middle;resizable=0;points=[];" parent="398" vertex="1" connectable="0">
                    <mxGeometry x="-0.3714" y="3" relative="1" as="geometry">
                        <mxPoint x="23" y="2" as="offset"/>
                    </mxGeometry>
                </mxCell>
                <mxCell id="400" value="presenza" style="rhombus;whiteSpace=wrap;html=1;rounded=0;" parent="1" vertex="1">
                    <mxGeometry x="-2439.35" y="-840" width="80" height="40" as="geometry"/>
                </mxCell>
                <mxCell id="401" value="(1, 1)" style="edgeStyle=none;jumpStyle=arc;html=1;startArrow=none;startFill=0;endArrow=none;endFill=0;" parent="1" source="390" target="403" edge="1">
                    <mxGeometry x="0.5052" y="20" relative="1" as="geometry">
                        <mxPoint as="offset"/>
                        <mxPoint x="-2280.73" y="-880.2099999999999" as="sourcePoint"/>
                    </mxGeometry>
                </mxCell>
                <mxCell id="402" value="(0, N)" style="edgeStyle=none;jumpStyle=arc;html=1;startArrow=none;startFill=0;endArrow=none;endFill=0;" parent="1" source="403" target="392" edge="1">
                    <mxGeometry x="-0.5138" y="20" relative="1" as="geometry">
                        <mxPoint as="offset"/>
                        <mxPoint x="-2280.640078957263" y="-759.7900000000001" as="targetPoint"/>
                        <Array as="points">
                            <mxPoint x="-2279.35" y="-740"/>
                        </Array>
                    </mxGeometry>
                </mxCell>
                <mxCell id="403" value="presenza" style="rhombus;whiteSpace=wrap;html=1;rounded=0;" parent="1" vertex="1">
                    <mxGeometry x="-2319.35" y="-840" width="80" height="40" as="geometry"/>
                </mxCell>
                <mxCell id="404" value="" style="endArrow=oval;html=1;fillStyle=auto;strokeWidth=1;startSize=6;endSize=6;fillColor=#000000;startArrow=none;startFill=0;endFill=0;" parent="1" source="389" edge="1">
                    <mxGeometry width="50" height="50" relative="1" as="geometry">
                        <mxPoint x="-2030.6609054325957" y="-700.4200000000001" as="sourcePoint"/>
                        <mxPoint x="-2439.35" y="-940" as="targetPoint"/>
                    </mxGeometry>
                </mxCell>
                <mxCell id="405" value="messaggio" style="edgeLabel;html=1;align=center;verticalAlign=middle;resizable=0;points=[];" parent="404" connectable="0" vertex="1">
                    <mxGeometry x="0.4791" y="1" relative="1" as="geometry">
                        <mxPoint x="-45" y="-6" as="offset"/>
                    </mxGeometry>
                </mxCell>
                <mxCell id="406" value="" style="endArrow=none;html=1;strokeColor=#000000;strokeWidth=1;fontColor=#FF0000;" parent="1" edge="1">
                    <mxGeometry width="50" height="50" relative="1" as="geometry">
                        <mxPoint x="-2359.4899999999993" y="-1049.69" as="sourcePoint"/>
                        <mxPoint x="-2269.35" y="-1010" as="targetPoint"/>
                        <Array as="points">
                            <mxPoint x="-2269.35" y="-1050"/>
                        </Array>
                    </mxGeometry>
                </mxCell>
                <mxCell id="407" value="" style="shape=waypoint;sketch=0;fillStyle=solid;size=6;pointerEvents=1;points=[];fillColor=none;resizable=0;rotatable=0;perimeter=centerPerimeter;snapToPoint=1;strokeColor=#000000;fontColor=#FF0000;" parent="1" vertex="1">
                    <mxGeometry x="-2369.35" y="-1059.92" width="20" height="20" as="geometry"/>
                </mxCell>
            </root>
        </mxGraphModel>
    </diagram>
</mxfile>
